<?xml version="1.0" encoding="UTF-8" standalone="no"?>

<svg width="100%" height="100%" viewBox="0 0 307 307" version="1.1" xmlns="http://www.w3.org/2000/svg" xmlns:xlink="http://www.w3.org/1999/xlink" xml:space="preserve" xmlns:serif="http://www.serif.com/" style="fill-rule:evenodd;clip-rule:evenodd;stroke-linejoin:round;stroke-miterlimit:2;">
    <g>
        <path d="M233.1,253.3C231.27,252.79 232.02,253.99 217.9,228.3C211.15,216.07 193.8,184.83 168.49,139.41C148.73,103.94 144.48,96.27 135.81,80.65C131.49,72.83 127.6,65.78 127.18,65C125.77,62.48 123.73,62.66 152.81,62.66C170.86,62.66 178.8,62.75 179.76,62.99C180.6,63.2 181.62,63.8 182.46,64.58C183.84,65.87 185.04,67.97 201.83,98.64C203.24,101.19 208.22,110.3 212.92,118.88C221.73,134.95 236,161.03 252.19,190.68C257.26,200 261.72,208.37 262.05,209.27C263.13,212.18 262.77,213.11 255.87,225.31C254.1,228.46 250.44,234.99 247.72,239.85C244.99,244.71 242.29,249.41 241.72,250.25C239.89,252.98 236.29,254.27 233.09,253.31L233.1,253.3Z" style="fill:rgb(187,194,202);fill-rule:nonzero;"></path>
    </g>
    <g>
        <path d="M68.51,253.19C57.9,250.85 48.48,242.79 44.35,232.47C42.55,227.94 41.92,224.85 41.89,220.21C41.83,212.95 41.92,212.71 54.69,189.36C65.93,168.82 81.73,139.83 88.36,127.57C93.16,118.76 98.22,109.49 109.29,89.34C110.16,87.78 112.2,84.06 113.85,81.1C115.5,78.13 118.02,73.51 119.52,70.85C121.14,67.85 122.37,65.96 122.64,65.96C123.06,65.96 128.82,76.12 146.86,108.77L150.91,116.06L150.07,117.62C149.59,118.49 147.82,121.76 146.08,124.88C144.34,128.03 141.82,132.61 140.47,135.07C139.12,137.56 135.73,143.67 132.97,148.71C130.18,153.75 127.15,159.26 126.22,161C125.26,162.74 123.43,166.1 122.11,168.5C120.79,170.9 117.85,176.29 115.57,180.49C111.55,187.93 110.47,189.99 104.57,200.88C101.42,206.67 92.85,222.5 89.55,228.61C77.38,251.19 76.48,252.77 75.37,253.22C74.14,253.73 70.9,253.73 68.5,253.19L68.51,253.19Z" style="fill:rgb(3,145,245);fill-rule:nonzero;"></path>
    </g>
    <g>
        <path d="M176.58,253.1C175.74,252.74 174.93,251.99 174.27,251.09C173.94,250.61 165.76,235.77 156.13,218.11C146.48,200.48 136.07,181.44 132.99,175.87C129.93,170.26 127.41,165.5 127.41,165.29C127.41,165.05 127.62,164.54 127.89,164.15L128.37,163.4L152.44,163.4C165.75,163.4 176.84,163.52 177.23,163.67C177.68,163.85 178.55,165.05 179.75,167.18C183.71,174.26 205.17,213.02 213.75,228.61C218.73,237.69 223.82,246.87 225.02,249.03C226.25,251.19 227.24,253.05 227.24,253.17C227.24,253.41 177.14,253.35 176.57,253.11L176.58,253.1Z" style="fill:rgb(8,66,148);fill-rule:nonzero;"></path>
    </g>
</svg>